<?xml version="1.0" encoding="utf-8"?>
<!-- Generator: Adobe Illustrator 15.1.0, SVG Export Plug-In . SVG Version: 6.00 Build 0)  -->
<!DOCTYPE svg PUBLIC "-//W3C//DTD SVG 1.1//EN" "http://www.w3.org/Graphics/SVG/1.1/DTD/svg11.dtd">
<svg version="1.1" id="Ebene_1" xmlns="http://www.w3.org/2000/svg" xmlns:xlink="http://www.w3.org/1999/xlink" x="0px" y="0px"
	 width="184.25px" height="42.52px" viewBox="0 0 184.25 42.52" enable-background="new 0 0 184.25 42.52" xml:space="preserve">
<circle fill="none" stroke="#000000" stroke-miterlimit="10" cx="23.036" cy="21.549" r="17.008"/>
<text transform="matrix(1 0 0 1 10.0493 25.8076)" font-family="'Arial-BoldMT'" font-size="12">Ctg1</text>
<circle fill="none" stroke="#000000" stroke-miterlimit="10" cx="91.222" cy="21.549" r="17.008"/>
<text transform="matrix(1 0 0 1 78.2358 25.8076)" font-family="'Arial-BoldMT'" font-size="12">Ctg2</text>
<circle fill="none" stroke="#000000" stroke-miterlimit="10" cx="159.657" cy="21.549" r="17.007"/>
<text transform="matrix(1 0 0 1 146.6709 25.8076)" font-family="'Arial-BoldMT'" font-size="12">Ctg3</text>
<path fill="none" d="M77.049,21.549"/>
<path fill="none" d="M47.209,21.549"/>
<g>
	<g>
		<path fill="none" stroke="#000000" stroke-miterlimit="10" d="M43.983,16.563c2.918-2.332,7.383-4.822,13.146-4.822
			c5.878,0,10.406,2.59,13.318,4.961"/>
		<g>
			<polygon points="42.64,23.211 44.523,16.15 37.418,17.857 			"/>
		</g>
		<g>
			<polygon points="66.992,18.651 74.229,20.534 72.242,13.325 			"/>
		</g>
	</g>
</g>
<g>
	<g>
		<path fill="none" stroke="#000000" stroke-miterlimit="10" d="M43.983,27.999c2.917,2.332,7.382,4.821,13.146,4.821
			c5.878,0,10.405-2.59,13.318-4.961"/>
		<g>
			<polygon points="37.447,26.675 44.552,28.383 42.669,21.321 			"/>
		</g>
		<g>
			<polygon points="72.213,31.208 74.2,23.998 66.962,25.882 			"/>
		</g>
	</g>
</g>
<g>
	<g>
		<path fill="none" stroke="#000000" stroke-miterlimit="10" d="M138.194,16.563c-2.918-2.332-7.383-4.822-13.146-4.822
			c-5.878,0-10.405,2.59-13.318,4.961"/>
		<g>
			<polygon points="144.73,17.887 137.625,16.18 139.508,23.24 			"/>
		</g>
		<g>
			<polygon points="109.965,13.354 107.978,20.563 115.215,18.681 			"/>
		</g>
	</g>
</g>
<g>
	<g>
		<path fill="none" stroke="#000000" stroke-miterlimit="10" d="M138.194,27.999c-2.917,2.332-7.382,4.821-13.146,4.821
			c-5.878,0-10.405-2.59-13.318-4.961"/>
		<g>
			<polygon points="139.537,21.352 137.654,28.412 144.76,26.705 			"/>
		</g>
		<g>
			<polygon points="115.186,25.911 107.948,24.027 109.936,31.237 			"/>
		</g>
	</g>
</g>
</svg>
