<?xml version="1.0" encoding="utf-8"?>
<!-- Generator: Adobe Illustrator 15.1.0, SVG Export Plug-In . SVG Version: 6.00 Build 0)  -->
<!DOCTYPE svg PUBLIC "-//W3C//DTD SVG 1.1//EN" "http://www.w3.org/Graphics/SVG/1.1/DTD/svg11.dtd">
<svg version="1.1" id="Ebene_1" xmlns="http://www.w3.org/2000/svg" xmlns:xlink="http://www.w3.org/1999/xlink" x="0px" y="0px"
	 width="340.16px" height="56.69px" viewBox="0 0 340.16 56.69" enable-background="new 0 0 340.16 56.69" xml:space="preserve">
<g>
	<g>
		<line fill="none" stroke="#000000" stroke-width="3" stroke-miterlimit="10" x1="34.588" y1="43.095" x2="40.588" y2="43.095"/>
		
			<line fill="none" stroke="#000000" stroke-width="3" stroke-miterlimit="10" stroke-dasharray="12.2128,12.2128" x1="52.801" y1="43.095" x2="315.375" y2="43.095"/>
		<line fill="none" stroke="#000000" stroke-width="3" stroke-miterlimit="10" x1="321.481" y1="43.095" x2="327.481" y2="43.095"/>
		<g>
			<polygon points="39.046,49.357 14.654,42.824 39.046,36.283 			"/>
		</g>
	</g>
</g>
<g>
	<g>
		<line fill="none" stroke="#000000" stroke-width="3" stroke-miterlimit="10" x1="14.654" y1="14.748" x2="20.654" y2="14.748"/>
		
			<line fill="none" stroke="#000000" stroke-width="3" stroke-miterlimit="10" stroke-dasharray="12.2128,12.2128" x1="32.867" y1="14.748" x2="295.441" y2="14.748"/>
		<line fill="none" stroke="#000000" stroke-width="3" stroke-miterlimit="10" x1="301.548" y1="14.748" x2="307.548" y2="14.748"/>
		<g>
			<polygon points="303.09,21.01 327.481,14.478 303.09,7.937 			"/>
		</g>
	</g>
</g>
<rect x="25.913" y="14.827" opacity="0.2" stroke="#000000" stroke-width="3" stroke-miterlimit="10" width="70.866" height="28.347"/>
<rect x="138.049" y="14.827" opacity="0.2" stroke="#000000" stroke-width="3" stroke-miterlimit="10" width="70.866" height="28.347"/>
<rect x="244.743" y="14.827" opacity="0.2" stroke="#000000" stroke-width="3" stroke-miterlimit="10" width="70.865" height="28.347"/>
<text transform="matrix(1 0 0 1 53.667 31.666)" font-family="'Arial-BoldMT'" font-size="12">Ctg1</text>
<text transform="matrix(1 0 0 1 159.1494 32.333)" font-family="'Arial-BoldMT'" font-size="12">Ctg2</text>
<text transform="matrix(1 0 0 1 268.667 32.333)" font-family="'Arial-BoldMT'" font-size="12">Ctg3</text>
<g>
	<g>
		<line fill="none" stroke="#F39200" stroke-width="3" stroke-miterlimit="10" x1="69.838" y1="14.827" x2="87.421" y2="14.827"/>
		<g>
			<polygon fill="#F39200" points="85.232,22.264 98.185,14.786 85.232,7.306 			"/>
		</g>
	</g>
</g>
<g>
	<g>
		<line fill="none" stroke="#F39200" stroke-width="3" stroke-miterlimit="10" x1="154.458" y1="14.808" x2="136.876" y2="14.905"/>
		<g>
			<polygon fill="#F39200" points="152.229,7.383 165.223,14.789 152.312,22.34 			"/>
		</g>
	</g>
</g>
<g>
	<g>
		<line fill="none" stroke="#F39200" stroke-width="3" stroke-miterlimit="10" x1="192.728" y1="43.174" x2="210.31" y2="43.174"/>
		<g>
			<polygon fill="#F39200" points="194.916,50.61 181.963,43.133 194.916,35.652 			"/>
		</g>
	</g>
</g>
<g>
	<g>
		<line fill="none" stroke="#F39200" stroke-width="3" stroke-miterlimit="10" x1="271.176" y1="43.095" x2="253.595" y2="43.192"/>
		<g>
			<polygon fill="#F39200" points="255.741,35.743 242.83,43.293 255.824,50.701 			"/>
		</g>
	</g>
</g>
<text transform="matrix(1 0 0 1 1 14.9053)" font-family="'Arial-BoldMT'" font-size="12">5‘</text>
<text transform="matrix(1 0 0 1 1 47.4053)" font-family="'Arial-BoldMT'" font-size="12">3‘</text>
<text transform="matrix(1 0 0 1 329.5 47.4053)" font-family="'Arial-BoldMT'" font-size="12">5‘</text>
<text transform="matrix(1 0 0 1 329.5 14.9053)" font-family="'Arial-BoldMT'" font-size="12">3‘</text>
</svg>
