<?xml version="1.0" encoding="utf-8"?>
<!-- Generator: Adobe Illustrator 15.1.0, SVG Export Plug-In . SVG Version: 6.00 Build 0)  -->
<!DOCTYPE svg PUBLIC "-//W3C//DTD SVG 1.1//EN" "http://www.w3.org/Graphics/SVG/1.1/DTD/svg11.dtd">
<svg version="1.1" id="Ebene_1" xmlns="http://www.w3.org/2000/svg" xmlns:xlink="http://www.w3.org/1999/xlink" x="0px" y="0px"
	 width="396.85px" height="85.04px" viewBox="0 0 396.85 85.04" enable-background="new 0 0 396.85 85.04" xml:space="preserve">
<line fill="none" stroke="#000000" stroke-width="3" stroke-miterlimit="10" x1="5.667" y1="66.666" x2="96.333" y2="66.666"/>
<line fill="none" stroke="#000000" stroke-width="3" stroke-miterlimit="10" x1="137.997" y1="66.666" x2="242" y2="66.666"/>
<line fill="none" stroke="#000000" stroke-width="3" stroke-miterlimit="10" x1="278.664" y1="66.666" x2="390.333" y2="66.666"/>
<line fill="none" stroke="#000000" stroke-width="2" stroke-miterlimit="10" x1="5.667" y1="44" x2="60" y2="44"/>
<line fill="none" stroke="#000000" stroke-width="2" stroke-miterlimit="10" x1="14.333" y1="38.667" x2="68.667" y2="38.667"/>
<line fill="none" stroke="#000000" stroke-width="2" stroke-miterlimit="10" x1="18.333" y1="34" x2="72.667" y2="34"/>
<line fill="none" stroke="#000000" stroke-width="2" stroke-miterlimit="10" x1="28.667" y1="28.333" x2="83" y2="28.333"/>
<line fill="none" stroke="#000000" stroke-width="2" stroke-miterlimit="10" x1="34.883" y1="23.667" x2="89.216" y2="23.667"/>
<line fill="none" stroke="#000000" stroke-width="2" stroke-miterlimit="10" x1="37.71" y1="18" x2="92.043" y2="18"/>
<line fill="none" stroke="#000000" stroke-width="2" stroke-miterlimit="10" x1="41.5" y1="13.333" x2="95.833" y2="13.333"/>
<line fill="none" stroke="#000000" stroke-width="2" stroke-miterlimit="10" x1="45.5" y1="7.667" x2="99.833" y2="7.667"/>
<line fill="none" stroke="#000000" stroke-width="2" stroke-miterlimit="10" x1="277" y1="53.668" x2="331.334" y2="53.668"/>
<line fill="none" stroke="#000000" stroke-width="2" stroke-miterlimit="10" x1="285.667" y1="48.334" x2="340" y2="48.334"/>
<line fill="none" stroke="#000000" stroke-width="2" stroke-miterlimit="10" x1="289.667" y1="43.668" x2="344" y2="43.668"/>
<line fill="none" stroke="#000000" stroke-width="2" stroke-miterlimit="10" x1="300" y1="39.001" x2="354.333" y2="39.001"/>
<line fill="none" stroke="#000000" stroke-width="2" stroke-miterlimit="10" x1="298.217" y1="34.334" x2="352.549" y2="34.334"/>
<line fill="none" stroke="#000000" stroke-width="2" stroke-miterlimit="10" x1="289.044" y1="28.667" x2="343.377" y2="28.667"/>
<line fill="none" stroke="#000000" stroke-width="2" stroke-miterlimit="10" x1="319.834" y1="24.001" x2="374.166" y2="24.001"/>
<line fill="none" stroke="#000000" stroke-width="2" stroke-miterlimit="10" x1="336.834" y1="17.334" x2="391.166" y2="17.334"/>
<line fill="none" stroke="#000000" stroke-width="2" stroke-miterlimit="10" x1="140" y1="46.5" x2="194.333" y2="46.5"/>
<line fill="none" stroke="#000000" stroke-width="2" stroke-miterlimit="10" x1="138.666" y1="41.167" x2="193" y2="41.167"/>
<line fill="none" stroke="#000000" stroke-width="2" stroke-miterlimit="10" x1="152.666" y1="35.5" x2="207" y2="35.5"/>
<line fill="none" stroke="#000000" stroke-width="2" stroke-miterlimit="10" x1="153" y1="30.834" x2="207.332" y2="30.834"/>
<line fill="none" stroke="#000000" stroke-width="2" stroke-miterlimit="10" x1="139.216" y1="26.167" x2="193.549" y2="26.167"/>
<line fill="none" stroke="#000000" stroke-width="2" stroke-miterlimit="10" x1="160.043" y1="20.5" x2="214.377" y2="20.5"/>
<line fill="none" stroke="#000000" stroke-width="2" stroke-miterlimit="10" x1="175.833" y1="15.834" x2="230.166" y2="15.834"/>
<line fill="none" stroke="#000000" stroke-width="2" stroke-miterlimit="10" x1="179.833" y1="10.167" x2="234.166" y2="10.167"/>
<line fill="none" stroke="#000000" stroke-width="2" stroke-miterlimit="10" x1="188.833" y1="4.667" x2="243.166" y2="4.667"/>
<text transform="matrix(1 0 0 1 37.7104 81.4746)" font-family="'Arial-BoldMT'" font-size="12">Ctg1</text>
<text transform="matrix(1 0 0 1 180.166 80.8076)" font-family="'Arial-BoldMT'" font-size="12">Ctg2</text>
<text transform="matrix(1 0 0 1 330.0449 80.8076)" font-family="'Arial-BoldMT'" font-size="12">Ctg3</text>
</svg>
